<?xml version="1.0" encoding="utf-8"?>
<!-- Generator: Adobe Illustrator 26.0.2, SVG Export Plug-In . SVG Version: 6.00 Build 0)  -->
<svg version="1.1" id="Layer_1" xmlns="http://www.w3.org/2000/svg" xmlns:xlink="http://www.w3.org/1999/xlink" x="0px" y="0px"
	 viewBox="0 0 100 100" style="enable-background:new 0 0 100 100;" xml:space="preserve">
<style type="text/css">
	.st0{fill:#F26322;}
	.st1{fill:#FFFFFF;stroke:#FFFFFF;stroke-width:2;stroke-miterlimit:10;}
</style>
<g>
	<circle class="st0" cx="49.3" cy="50" r="45"/>
</g>
<g>
	<g>
		<path class="st1" d="M50,72.2L64,58.2c0.4-0.4,0.4-1,0-1.3c-0.4-0.4-1-0.4-1.3,0L50.2,69.3V28.4c0-0.5-0.4-0.9-0.9-0.9
			s-0.9,0.4-0.9,0.9v40.9L35.9,56.8c-0.4-0.4-1-0.4-1.3,0c-0.2,0.2-0.3,0.4-0.3,0.7s0.1,0.5,0.3,0.7l14.1,14.1
			C49,72.6,49.6,72.6,50,72.2z"/>
	</g>
</g>
</svg>
