<?xml version="1.0" encoding="utf-8"?>
<!-- Generator: Adobe Illustrator 26.0.2, SVG Export Plug-In . SVG Version: 6.00 Build 0)  -->
<svg version="1.1" id="Layer_1" xmlns="http://www.w3.org/2000/svg" xmlns:xlink="http://www.w3.org/1999/xlink" x="0px" y="0px"
	 viewBox="0 0 100 100" style="enable-background:new 0 0 100 100;" xml:space="preserve">
<style type="text/css">
	.st0{fill:#F26322;}
	.st1{fill:#FFFFFF;}
</style>
<circle class="st0" cx="56.1" cy="50.8" r="38.5"/>
<g>
	<path d="M2.3,27.3h27.3v8.4H11.9v9h16.2v8.1H11.9v16.4H2.3V27.3z"/>
</g>
<g>
	<path class="st1" d="M50.9,56.2l0.2-1.1c0.9,0.1,1.8,0.4,2.7,0.9c0.9,0.5,1.6,1.1,2.1,1.9c0.6,0.8,0.9,1.9,0.9,3.3
		c0,1.9-0.6,3.5-1.7,4.7c-1.2,1.2-2.7,1.9-4.7,1.9c-1.3,0-2.5-0.3-3.4-0.9c-1-0.6-1.9-1.2-2.7-2c-0.9-0.8-1.8-1.4-2.7-2
		c-0.9-0.6-2.1-0.9-3.3-0.9c-1.5,0-2.8,0.2-4,0.7c-1.2,0.4-2.5,1-3.9,1.7c-0.8,1.1-1.6,2-2.6,2.6s-1.6,0.7-2.1,0.2
		c-0.4-0.4-0.4-1,0.1-1.8c0.5-0.8,1.7-1.5,3.6-2.2l31-30.4c-1.5,0.9-3,1.6-4.6,2.1c-1.6,0.5-3.1,0.8-4.6,0.8s-2.8-0.2-4-0.7
		c-1.2-0.5-2.3-1-3.4-1.5c-1.1-0.5-2.5-0.7-4-0.7c-1.2,0-2.1,0.3-2.7,0.9c-0.6,0.6-0.9,1.5-0.9,2.6c0,1.1,0.3,1.9,1,2.6
		c0.7,0.6,1.6,1.1,2.8,1.3l-0.2,1.1c-0.9-0.2-1.8-0.5-2.6-0.9c-0.9-0.4-1.6-1.1-2.2-1.9c-0.6-0.9-0.9-2-0.9-3.3
		c0-1.9,0.6-3.5,1.7-4.7c1.2-1.2,2.7-1.9,4.7-1.9c1.3,0,2.5,0.3,3.4,0.9c1,0.6,1.9,1.2,2.7,2c0.9,0.8,1.8,1.4,2.7,2
		c0.9,0.6,2.1,0.9,3.3,0.9c1.5,0,2.8-0.2,4-0.7c1.2-0.4,2.5-1,3.9-1.7c0.8-1.1,1.7-2,2.6-2.6c0.9-0.6,1.6-0.7,2.1-0.2
		c0.4,0.4,0.4,0.9-0.1,1.7c-0.5,0.8-1.7,1.6-3.6,2.3l-31,30.4c1.5-0.9,3-1.6,4.6-2.1c1.6-0.5,3.1-0.8,4.6-0.8c1.5,0,2.9,0.2,4,0.7
		c1.1,0.5,2.3,1,3.4,1.5c1.1,0.5,2.5,0.7,4,0.7c1.2,0,2.1-0.3,2.7-0.9c0.6-0.6,0.9-1.5,0.9-2.6c0-1.1-0.3-1.9-1-2.6
		C53.1,56.9,52.1,56.5,50.9,56.2z M35.5,48.7l0.4-1.1h18.8l-0.4,1.1H35.5z"/>
	<path class="st1" d="M65,66.4c0.3,0.1,0.6,0.3,0.9,0.3c0.3,0.1,0.8,0.1,1.5,0.1c1.6,0,2.9-0.5,3.9-1.4c1-0.9,1.5-2.3,1.5-4.1
		c0-1.1-0.2-2.2-0.6-3.3c-0.4-1.1-1.1-2.3-2.2-3.8c-0.8-1.1-1.6-2.3-2.3-3.5c-0.7-1.2-1.1-2.6-1.1-4.2c0-2.3,0.8-4.1,2.4-5.5
		s3.6-2.1,5.8-2.1c1,0,2,0.1,3,0.4c1,0.2,1.8,0.7,2.5,1.4c0.7,0.7,1,1.6,1,2.9c0,0.5-0.2,1.1-0.5,1.8c-0.4,0.7-1,1-1.9,1
		c-0.6,0-1.1-0.2-1.5-0.6c-0.4-0.4-0.6-1-0.6-1.6c0-0.6,0.1-1.3,0.4-1.8c0.3-0.6,0.6-1.2,1.1-1.7c-0.7-0.4-1.6-0.6-2.7-0.6
		c-1.3,0-2.4,0.4-3.3,1.3c-0.9,0.9-1.3,2.1-1.3,3.7c0,1.2,0.3,2.2,0.8,3.1c0.6,0.8,1.3,2,2.4,3.6c0.9,1.4,1.6,2.7,2.2,3.9
		c0.6,1.2,0.9,2.6,0.9,3.9c0,1.6-0.4,3.1-1.3,4.3c-0.8,1.3-1.9,2.3-3.3,3c-1.4,0.7-2.9,1.1-4.6,1.1c-1.2,0-2.4-0.2-3.5-0.5
		c-1.1-0.4-2-0.9-2.7-1.7c-0.7-0.8-1-1.8-1-3.1c0-0.5,0.2-1,0.5-1.6c0.3-0.6,0.8-0.8,1.6-0.8c0.9,0,1.5,0.3,1.8,1
		c0.4,0.7,0.5,1.5,0.5,2.3c0,0.6,0,1.1-0.1,1.5C65.1,65.5,65,66,65,66.4z"/>
</g>
<circle cx="91.2" cy="68.8" r="6.8"/>
</svg>
